<svg xmlns="http://www.w3.org/2000/svg" viewBox="0 0 128 128" role="img" aria-labelledby="title desc">
  <title id="title">SAP Spellbook Academy icon</title>
  <desc id="desc">An original open spellbook with a moonstone compass mark.</desc>
  <defs>
    <linearGradient id="cover" x1="16" y1="18" x2="110" y2="114" gradientUnits="userSpaceOnUse">
      <stop stop-color="#1ab2a8"/>
      <stop offset=".48" stop-color="#6f5bd6"/>
      <stop offset="1" stop-color="#e5a93a"/>
    </linearGradient>
    <linearGradient id="page" x1="20" y1="34" x2="106" y2="101" gradientUnits="userSpaceOnUse">
      <stop stop-color="#fffaf0"/>
      <stop offset="1" stop-color="#dff8f5"/>
    </linearGradient>
  </defs>
  <rect x="8" y="8" width="112" height="112" rx="28" fill="#17161d"/>
  <path d="M24 36c15-7 28-6 40 4 12-10 25-11 40-4v64c-15-6-28-5-40 5-12-10-25-11-40-5z" fill="url(#cover)"/>
  <path d="M31 43c12-4 22-2 30 5v46c-9-6-19-8-30-5zm36 5c8-7 18-9 30-5v46c-11-3-21-1-30 5z" fill="url(#page)"/>
  <path d="M64 42v61" stroke="#17161d" stroke-width="4" stroke-linecap="round" opacity=".38"/>
  <path d="M40 58h13M40 70h14M76 58h13M76 70h10" stroke="#2d3a3a" stroke-width="4" stroke-linecap="round" opacity=".72"/>
  <path d="M64 19l5.3 13.5L84 38l-14.7 5.5L64 57l-5.3-13.5L44 38l14.7-5.5z" fill="#e5a93a"/>
  <circle cx="64" cy="38" r="5.5" fill="#fff7cf"/>
</svg>
