<svg xmlns="http://www.w3.org/2000/svg" viewBox="0 0 128 128" role="img" aria-labelledby="title desc">
  <title id="title">SAP Spellbook Academy icon</title>
  <desc id="desc">An original arcane academy crest with a spellbook, moonstone, integration orbit, and database glyph.</desc>
  <defs>
    <linearGradient id="crest-bg" x1="10" y1="9" x2="118" y2="121" gradientUnits="userSpaceOnUse">
      <stop stop-color="#23202d"/>
      <stop offset=".55" stop-color="#17161d"/>
      <stop offset="1" stop-color="#10161a"/>
    </linearGradient>
    <linearGradient id="book-cover" x1="20" y1="36" x2="111" y2="109" gradientUnits="userSpaceOnUse">
      <stop stop-color="#22c8bc"/>
      <stop offset=".52" stop-color="#705de8"/>
      <stop offset="1" stop-color="#e9b94e"/>
    </linearGradient>
    <linearGradient id="page-glow" x1="27" y1="43" x2="101" y2="97" gradientUnits="userSpaceOnUse">
      <stop stop-color="#fff7df"/>
      <stop offset=".55" stop-color="#eaf9f5"/>
      <stop offset="1" stop-color="#c9f3ef"/>
    </linearGradient>
    <linearGradient id="moonstone" x1="51" y1="18" x2="79" y2="54" gradientUnits="userSpaceOnUse">
      <stop stop-color="#fff5bf"/>
      <stop offset=".5" stop-color="#e7b84f"/>
      <stop offset="1" stop-color="#7fdad2"/>
    </linearGradient>
  </defs>
  <rect x="8" y="8" width="112" height="112" rx="28" fill="url(#crest-bg)"/>
  <rect x="10.5" y="10.5" width="107" height="107" rx="25.5" fill="none" stroke="#7fdad2" stroke-opacity=".23" stroke-width="3"/>
  <ellipse cx="64" cy="61" rx="49" ry="20" fill="none" stroke="#7fdad2" stroke-linecap="round" stroke-width="2.8" opacity=".42" transform="rotate(-21 64 61)"/>
  <ellipse cx="64" cy="61" rx="41" ry="15" fill="none" stroke="#e9b94e" stroke-dasharray="4 8" stroke-linecap="round" stroke-width="2" opacity=".42" transform="rotate(-21 64 61)"/>
  <circle cx="24" cy="75" r="3.8" fill="#7fdad2"/>
  <circle cx="105" cy="48" r="3.8" fill="#e9b94e"/>
  <path d="M21 42c16-8 31-7 43 5 12-12 27-13 43-5v63c-16-7-31-6-43 6-12-12-27-13-43-6z" fill="url(#book-cover)"/>
  <path d="M28 49c12-4 23-1 32 7v42c-9-7-20-9-32-6zm40 7c9-8 20-11 32-7v43c-12-3-23-1-32 6z" fill="url(#page-glow)"/>
  <path d="M64 47v59" stroke="#151820" stroke-linecap="round" stroke-width="4" opacity=".42"/>
  <path d="M38 63h13M38 75h15M77 63h13M77 75h9" stroke="#263837" stroke-linecap="round" stroke-width="4" opacity=".72"/>
  <g opacity=".95">
    <ellipse cx="94" cy="81" rx="12" ry="5" fill="#121a1f" stroke="#7fdad2" stroke-width="2"/>
    <path d="M82 81v12c0 3 5.4 5 12 5s12-2 12-5V81" fill="#15242a" stroke="#7fdad2" stroke-width="2"/>
    <ellipse cx="94" cy="93" rx="12" ry="5" fill="#1d3034" stroke="#7fdad2" stroke-width="2"/>
    <path d="M88 86h12" stroke="#e9b94e" stroke-linecap="round" stroke-width="2"/>
  </g>
  <path d="M64 18l5.2 13.4L83 36.6l-13.8 5.2L64 55.2l-5.2-13.4L45 36.6l13.8-5.2z" fill="url(#moonstone)"/>
  <circle cx="64" cy="36.6" r="5.5" fill="#fff8dc"/>
  <path d="M48 103c12 4 20 4 32 0" fill="none" stroke="#fff7df" stroke-linecap="round" stroke-width="2.5" opacity=".44"/>
</svg>
