<svg xmlns="http://www.w3.org/2000/svg" viewBox="0 0 64 64">
  <defs>
    <linearGradient id="bg" x1="8" x2="56" y1="6" y2="58" gradientUnits="userSpaceOnUse">
      <stop stop-color="#1f1442"/>
      <stop offset=".55" stop-color="#4b247f"/>
      <stop offset="1" stop-color="#0f2745"/>
    </linearGradient>
    <linearGradient id="book" x1="14" x2="50" y1="17" y2="52" gradientUnits="userSpaceOnUse">
      <stop stop-color="#fff9df"/>
      <stop offset="1" stop-color="#f8d987"/>
    </linearGradient>
  </defs>
  <rect width="64" height="64" rx="15" fill="url(#bg)"/>
  <circle cx="48" cy="16" r="9" fill="#6ee7f2" opacity=".18"/>
  <path d="m32 7 2.2 4.5 5 .7-3.6 3.5.9 5-4.5-2.4-4.5 2.4.9-5-3.6-3.5 5-.7z" fill="#ffc857"/>
  <path d="M10 18c7.8-3.8 15.4-2.9 22 2.3 6.6-5.2 14.2-6.1 22-2.3v31c-7.8-3.1-15.1-2.2-22 3-6.9-5.2-14.2-6.1-22-3z" fill="#6d45d7"/>
  <path d="M14 21c6.4-2.4 12.5-1.5 18 2.6V50c-5.5-4.1-11.6-5-18-2.6zM32 23.6c5.5-4.1 11.6-5 18-2.6v26.4c-6.4-2.4-12.5-1.5-18 2.6z" fill="url(#book)"/>
  <path d="M32 23.5V50" stroke="#4b247f" stroke-width="2" stroke-linecap="round"/>
  <path d="M19 30h7M19 37h6M38 30h7M38 37h6" stroke="#6d45d7" stroke-width="2.2" stroke-linecap="round"/>
  <circle cx="15" cy="14" r="1.8" fill="#fff9df"/>
  <circle cx="51" cy="44" r="1.6" fill="#ffc857"/>
</svg>
